# xmcd CD database file
#
# Track frame offsets:
#	154
#	16871
#	31561
#	51998
#	68233
#	82401
#	92860
#	109725
#	122859
#	135230
#	148341
#	163318
#
# Disc length: 2381 seconds
#
# Revision: 1
# Processed by: cddbd v1.5.1PL0 Copyright (c) Steve Scherf et al.
# Submitted via: CDex 1.50beta10
#
DISCID=a9094b0c
DTITLE=ROCIO DURCAL - ALMA RANCHERA
DYEAR=2004
DGENRE=Ranchera
TTITLE0=UN MUNDO RARO
TTITLE1=SI DIOS ME QUITA LA VIDA
TTITLE2=CUCURRUCUCU PALOMA
TTITLE3=FALLASTE CORAZON
TTITLE4=SUFRO TU AUSENCIA
TTITLE5=FIESTA EN EL CORAZON
TTITLE6=AMANECI ENTUS BRAZOS
TTITLE7=ECHAME A MI LA CULPA
TTITLE8=LA MEDIA VUELTA
TTITLE9=ESTA TRISTEZA MIA
TTITLE10=TE PARTO EL ALMA
TTITLE11=VETE A VOLAR
EXTD=YEAR: 2004
EXTT0=
EXTT1=
EXTT2=
EXTT3=
EXTT4=
EXTT5=
EXTT6=
EXTT7=
EXTT8=
EXTT9=
EXTT10=
EXTT11=
PLAYORDER=
